<svg height="480pt" viewBox="0 0 480 480.24758" width="480pt" xmlns="http://www.w3.org/2000/svg"><g fill="#9bc9ff"><path d="m32.125 312.246094h80v160h-80zm0 0"/><path d="m144.125 200.246094h80v272h-80zm0 0"/><path d="m256.125 280.246094h80v192h-80zm0 0"/><path d="m368.125 168.246094h80v304h-80zm0 0"/><path d="m104.125 184.246094c0 17.675781-14.328125 32-32 32-17.675781 0-32-14.324219-32-32 0-17.671875 14.324219-32 32-32 17.671875 0 32 14.328125 32 32zm0 0"/><path d="m165.773438 98.464844c14.476562 10.132812 34.429687 6.613281 44.5625-7.867188 10.136718-14.476562 6.617187-34.429687-7.863282-44.566406-14.476562-10.132812-34.429687-6.613281-44.566406 7.863281-10.132812 14.480469-6.613281 34.433594 7.867188 44.570313zm0 0"/><path d="m328.125 152.246094c0 17.675781-14.328125 32-32 32-17.675781 0-32-14.324219-32-32 0-17.671875 14.324219-32 32-32 17.671875 0 32 14.328125 32 32zm0 0"/><path d="m440.125 40.246094c0 17.675781-14.328125 32-32 32-17.675781 0-32-14.324219-32-32 0-17.671875 14.324219-32 32-32 17.671875 0 32 14.328125 32 32zm0 0"/></g><path d="m456.125 464.246094v-296c0-4.417969-3.582031-8-8-8h-80c-4.417969 0-8 3.582031-8 8v296h-16v-184c0-4.417969-3.582031-8-8-8h-80c-4.417969 0-8 3.582031-8 8v184h-16v-264c0-4.417969-3.582031-8-8-8h-80c-4.417969 0-8 3.582031-8 8v264h-16v-152c0-4.417969-3.582031-8-8-8h-80c-4.417969 0-8 3.582031-8 8v152h-24v16h480v-16zm-416 0v-144h64v144zm112 0v-256h64v256zm112 0v-176h64v176zm112 0v-288h64v288zm0 0" fill="#1e81ce"/><path d="m72.125 224.246094c14.722656 0 28.253906-8.085938 35.226562-21.054688 6.972657-12.96875 6.257813-28.71875-1.859374-41l56.625-56.632812c6.488281 4.34375 14.117187 6.671875 21.925781 6.6875 2.355469.003906 4.707031-.203125 7.023437-.613282 7.613282-1.335937 14.667969-4.859374 20.304688-10.144531l47.464844 36.488281c-6.792969 17.679688-.253907 37.699219 15.664062 47.960938 15.921875 10.265625 36.855469 7.957031 50.15625-5.53125 13.296875-13.484375 15.316406-34.445312 4.835938-50.222656l56.609374-56.609375c17.175782 11.371093 40.175782 7.882812 53.210938-8.070313s11.867188-39.1875-2.699219-53.753906c-14.566406-14.566406-37.800781-15.734375-53.753906-2.699219-15.953125 13.035157-19.441406 36.035157-8.070313 53.210938l-56.609374 56.609375c-15.855469-10.480469-36.894532-8.355469-50.335938 5.082031-.152344.152344-.238281.328125-.382812.46875l-46.777344-35.949219c7.804687-17.53125 2.058594-38.136718-13.691406-49.101562-15.753907-10.960938-37.070313-9.191406-50.800782 4.214844-13.726562 13.410156-16 34.679687-5.410156 50.6875l-56.601562 56.605468c-14.273438-9.4375-32.972657-8.746094-46.515626 1.714844-13.539062 10.460938-18.925781 28.378906-13.398437 44.574219 5.527344 16.195312 20.746094 27.082031 37.859375 27.078125zm336-208c13.253906 0 24 10.746094 24 24 0 13.257812-10.746094 24-24 24-13.257812 0-24-10.742188-24-24 0-13.253906 10.742188-24 24-24zm-112 112c9.707031 0 18.460938 5.847656 22.175781 14.820312 3.714844 8.96875 1.660157 19.292969-5.210937 26.15625-9.496094 9.054688-24.433594 9.054688-33.933594 0-6.867188-6.863281-8.925781-17.1875-5.210938-26.15625 3.714844-8.972656 12.46875-14.820312 22.179688-14.820312zm-131.65625-69.765625c3.636719-5.226563 9.214844-8.78125 15.488281-9.871094 1.390625-.242187 2.800781-.359375 4.214844-.363281 4.910156.007812 9.699219 1.523437 13.71875 4.34375 10.859375 7.605468 13.496094 22.570312 5.890625 33.429687-7.605469 10.855469-22.570312 13.492188-33.425781 5.886719s-13.492188-22.570312-5.886719-33.425781zm-109.3125 108.792969c9.375-9.371094 24.574219-9.371094 33.945312.007812 9.371094 9.375 9.367188 24.570312-.011718 33.941406-9.496094 9.054688-24.433594 9.054688-33.933594 0-9.378906-9.371094-9.378906-24.578125 0-33.949218zm0 0" fill="#ff5722"/></svg>